HIERARCHY
ROOT Hips
{
	OFFSET 0.00000 0.00000 0.00000
	CHANNELS 6 Xposition Yposition Zposition Zrotation Yrotation Xrotation 
	JOINT LHipJoint
	{
		OFFSET 0 0 0
		CHANNELS 3 Zrotation Yrotation Xrotation
		JOINT LeftHip
		{
			OFFSET 1.57338 -1.94743 0.52196
			CHANNELS 3 Zrotation Yrotation Xrotation
			JOINT LeftKnee
			{
				OFFSET 2.60333 -7.15259 0.00000
				CHANNELS 3 Zrotation Yrotation Xrotation
				JOINT LeftAnkle
				{
					OFFSET 2.77855 -7.63400 0.00000
					CHANNELS 3 Zrotation Yrotation Xrotation
					JOINT LeftToe
					{
						OFFSET 0.19847 -0.54529 2.28466
						CHANNELS 3 Zrotation Yrotation Xrotation
						End Site
						{
							OFFSET 0.00000 -0.00000 1.17993
						}
					}
				}
			}
		}
	}
	JOINT RHipJoint
	{
		OFFSET 0 0 0
		CHANNELS 3 Zrotation Yrotation Xrotation
		JOINT RightHip
		{
			OFFSET -1.61527 -1.94743 0.52196
			CHANNELS 3 Zrotation Yrotation Xrotation
			JOINT RightKnee
			{
				OFFSET -2.53829 -6.97390 0.00000
				CHANNELS 3 Zrotation Yrotation Xrotation
				JOINT RightAnkle
				{
					OFFSET -2.80762 -7.71387 0.00000
					CHANNELS 3 Zrotation Yrotation Xrotation
					JOINT RightToe
					{
						OFFSET -0.30536 -0.83898 2.28801
						CHANNELS 3 Zrotation Yrotation Xrotation
						End Site
						{
							OFFSET -0.00000 -0.00000 1.21323
						}
					}
				}
			}
		}
	}
	JOINT lowerback
	{
		OFFSET 0 0 0
		CHANNELS 3 Zrotation Yrotation Xrotation
		JOINT Chest
		{
			OFFSET -0.04381 1.99497 -0.19778
			CHANNELS 3 Zrotation Yrotation Xrotation
			JOINT Chest2
			{
				OFFSET -0.01959 2.01295 -0.04372
				CHANNELS 3 Zrotation Yrotation Xrotation
				JOINT lowerneck
				{
					OFFSET 0 0 0
					CHANNELS 3 Zrotation Yrotation Xrotation
					JOINT Neck
					{
						OFFSET -0.05459 1.76913 0.09708
						CHANNELS 3 Zrotation Yrotation Xrotation
						JOINT Head
						{
							OFFSET 0.09461 1.77368 -0.11172
							CHANNELS 3 Zrotation Yrotation Xrotation
							End Site
							{
								OFFSET 0.03812 1.78157 -0.04834
							}
						}
					}
				}
				JOINT LeftCollar
				{
					OFFSET 0 0 0
					CHANNELS 3 Zrotation Yrotation Xrotation
					JOINT LeftShoulder
					{
						OFFSET 3.50922 1.24034 -0.28866
CHANNELS 3 Zrotation Xrotation Yrotation
						JOINT LeftElbow
						{
OFFSET 0 -5.401880 0.000000
CHANNELS 3 Zrotation Xrotation Yrotation
							JOINT LeftWrist
							{
OFFSET 0 -3.685590 0.000000
CHANNELS 3 Zrotation Xrotation Yrotation
								JOINT lhand
								{
									OFFSET 0 0 0
CHANNELS 3 Zrotation Xrotation Yrotation
									JOINT LFingers
									{
OFFSET 0 -0.617530 0.000000
CHANNELS 3 Zrotation Xrotation Yrotation
										End Site
										{
OFFSET 0 -0.497870 0.000000
										}
									}
								}
								JOINT LThumb
								{
OFFSET 0 0.000000 0.000000
CHANNELS 3 Zrotation Xrotation Yrotation
									End Site
									{
OFFSET 0 -0.505470 0.505470
									}
								}
							}
						}
					}
				}
				JOINT RightCollar
				{
					OFFSET 0 0 0
					CHANNELS 3 Zrotation Yrotation Xrotation
					JOINT RightShoulder
					{
						OFFSET -2.95373 1.39649 -0.27346
CHANNELS 3 Zrotation Xrotation Yrotation
						JOINT RightElbow
						{
OFFSET 0 -6.106700 -0.000000
CHANNELS 3 Zrotation Xrotation Yrotation
							JOINT RightWrist
							{
OFFSET 0 -3.630520 0.000000
CHANNELS 3 Zrotation Xrotation Yrotation
								JOINT rhand
								{
									OFFSET 0 0 0
CHANNELS 3 Zrotation Xrotation Yrotation
									JOINT RFingers
									{
OFFSET 0 -0.583850 0.000000
CHANNELS 3 Zrotation Xrotation Yrotation
										End Site
										{
OFFSET 0 -0.470710 0.000000
										}
									}
								}
								JOINT RThumb
								{
OFFSET 0 0.000000 0.000000
CHANNELS 3 Zrotation Xrotation Yrotation
									End Site
									{
OFFSET 0 -0.477900 0.477900
									}
								}
							}
						}
					}
				}
			}
		}
	}
}
MOTION
Frames: 11
Frame Time: 0.008333333333333333
3.670205 18.337857 4.932486 -3.879591 -21.490547 -8.808615 0.000000 0.000000 0.000000 -14.340978 -0.996084 7.802648 2.717509 10.223048 29.702106 1.722421 7.931157 -28.734365 0.382960 -3.973913 -11.003377 0.000000 0.000000 0.000000 8.265525 5.325545 -17.008145 -10.708269 -17.788768 61.829882 0.937746 -17.083048 -3.386565 -0.000359 0.115985 -0.318683 -4.884417 -0.395587 0.942415 -1.892607 -0.609887 -0.289684 0.803517 -0.287741 -0.796502 -6.795092 -3.479382 -0.096962 5.682875 -5.763797 23.560666 2.632469 -2.993647 7.591848 0.000000 0.000000 0.000000 17.443843 -35.524006 -35.134265 129.086229 -53.353108 93.093274 18.954480 1.832489 -17.364672 0.000000 0.000000 0.000000 -7.125000 0.000000 0.000000 -8.696320 48.081976 0.666252 0.000000 0.000000 0.000000 -125.556132 -41.466536 -67.901749 -92.022626 -59.977131 -61.751536 -34.619405 2.318657 -5.165535 0.000000 0.000000 0.000000 7.125000 0.000000 0.000000 -5.880108 23.716364 -3.033990
3.563629 18.360989 5.049524 -4.042347 -20.431785 -7.812349 0.000000 0.000000 0.000000 -14.129859 -1.968016 7.858045 2.571773 9.967241 28.870721 1.689722 8.090727 -28.617951 0.422470 -4.171778 -11.560476 0.000000 0.000000 0.000000 8.346530 6.882342 -16.934382 -8.936963 -16.764749 55.868524 0.863878 -16.417409 -9.018084 -0.010161 0.651850 -1.791152 -4.866225 -0.162257 1.175091 -2.265987 -0.310417 -0.094590 0.406254 -0.143393 -0.743690 -6.320478 -3.908390 -0.171929 5.824684 -6.400258 23.397644 2.550567 -3.239806 7.583387 0.000000 0.000000 0.000000 18.653884 -31.875220 -30.869858 135.843419 -50.344004 98.411292 19.701796 1.079598 -16.901671 0.000000 0.000000 0.000000 -7.125000 0.000000 0.000000 -7.863752 47.710628 0.529008 0.000000 0.000000 0.000000 -126.457120 -38.138777 -73.558261 -108.998110 -58.574191 -76.372512 -39.552554 1.585601 -3.992454 0.000000 0.000000 0.000000 7.125000 0.000000 0.000000 -9.650715 24.807538 -4.771621
3.455906 18.382905 5.153936 -4.368526 -19.217116 -6.675079 0.000000 0.000000 0.000000 -13.751503 -3.339812 7.826694 2.446301 9.739455 28.137179 1.694706 8.118849 -28.670000 0.400951 -4.065410 -11.260782 0.000000 0.000000 0.000000 8.448731 8.963664 -16.150527 -6.987357 -15.317258 48.819502 0.906929 -17.331400 -11.950710 -0.025356 1.004744 -2.762078 -4.729416 -0.125878 1.638266 -2.245717 -0.284803 0.029255 0.351705 -0.129890 -0.877871 -6.377034 -4.286227 -0.188137 5.435243 -6.812775 23.245895 2.399782 -3.466265 7.556394 0.000000 0.000000 0.000000 18.809143 -27.000807 -25.480490 139.905269 -48.124936 101.489920 20.842243 -1.735055 -17.054578 0.000000 0.000000 0.000000 -7.125000 0.000000 0.000000 -6.821676 48.034343 0.511491 0.000000 0.000000 0.000000 -127.489852 -35.774393 -79.133608 -123.127485 -55.401607 -88.244153 -43.306818 0.538211 -3.417869 0.000000 0.000000 0.000000 7.125000 0.000000 0.000000 -12.493404 25.268266 -6.104386
3.331863 18.390197 5.240518 -4.645165 -18.030033 -5.742060 0.000000 0.000000 0.000000 -13.030524 -4.035814 7.497114 2.358616 9.576163 27.614936 1.702092 7.593212 -28.382749 0.397853 -4.049465 -11.216015 0.000000 0.000000 0.000000 8.412222 11.679608 -14.525984 -5.126111 -13.520977 41.357661 0.739417 -16.207452 -12.584773 -0.016565 0.829629 -2.280226 -4.350715 0.087947 2.070861 -2.366943 -0.004327 0.420086 0.009700 0.001746 -0.730269 -6.354859 -4.754157 0.077954 5.539740 -7.440096 22.541052 2.391606 -3.754541 7.321529 0.000000 0.000000 0.000000 18.094079 -22.948693 -20.418051 140.302932 -47.888856 101.785647 22.897801 -6.209041 -17.497840 0.000000 0.000000 0.000000 -7.125000 0.000000 0.000000 -4.959989 48.808470 0.467017 0.000000 0.000000 0.000000 -127.572761 -33.780398 -83.915320 -132.464971 -51.943567 -95.778660 -46.758475 1.196436 -3.272110 0.000000 0.000000 0.000000 7.125000 0.000000 0.000000 -15.026762 25.177929 -7.452343
3.192527 18.401367 5.314136 -4.573484 -16.373346 -5.000017 0.000000 0.000000 0.000000 -12.327636 -4.265466 6.790371 2.300824 9.466481 27.265752 1.645791 6.722499 -27.457480 0.511110 -4.582309 -12.720967 0.000000 0.000000 0.000000 7.814167 15.039796 -12.235160 -3.604621 -11.613641 34.379926 0.531875 -14.510528 -12.700412 -0.085496 1.871118 -5.150210 -4.178898 0.273445 2.368255 -2.556971 0.243504 0.810100 -0.288089 0.117802 -0.502807 -5.982846 -5.119095 1.177314 5.339310 -7.917510 21.751642 2.265299 -3.986390 6.880954 0.000000 0.000000 0.000000 16.929768 -19.877506 -16.222154 136.900324 -49.801187 99.222679 25.026413 -13.157790 -18.178068 0.000000 0.000000 0.000000 -7.125000 0.000000 0.000000 -3.037992 49.875294 0.364986 0.000000 0.000000 0.000000 -126.476438 -33.097869 -86.932403 -138.308414 -49.040140 -100.292517 -47.947652 1.020634 -3.423387 0.000000 0.000000 0.000000 7.125000 0.000000 0.000000 -15.844301 24.851021 -8.014007
3.028501 18.404488 5.368818 -4.775180 -14.114958 -4.131792 0.000000 0.000000 0.000000 -11.241198 -5.226983 5.790794 2.289988 9.445641 27.199619 1.597667 5.605470 -26.460939 0.566837 -4.821963 -13.401439 0.000000 0.000000 0.000000 7.565869 18.643807 -9.797100 -2.512304 -9.858922 28.522258 0.577364 -14.064927 -10.070587 -0.507988 4.568564 -12.681992 -3.645006 0.366242 2.478026 -2.554844 0.382984 1.010786 -0.587646 0.185072 -0.358700 -6.379544 -5.391050 1.691594 5.649927 -8.408385 22.828594 2.411541 -4.233505 7.207783 0.000000 0.000000 0.000000 15.539824 -17.854590 -13.420201 128.974747 -53.395131 93.003398 27.112196 -17.134606 -21.253923 0.000000 0.000000 0.000000 -7.125000 0.000000 0.000000 -1.646337 53.576632 0.346399 0.000000 0.000000 0.000000 -124.109635 -34.031099 -87.065540 -140.226414 -47.935141 -101.729057 -49.308503 1.784243 -3.020265 0.000000 0.000000 0.000000 7.125000 0.000000 0.000000 -16.912952 25.299883 -8.415892
2.832681 18.375161 5.421770 -4.595734 -11.981231 -3.889439 0.000000 0.000000 0.000000 -10.340345 -5.573022 4.947892 2.331173 9.524329 27.449647 1.550996 4.266132 -25.393165 0.726873 -5.447219 -15.188796 0.000000 0.000000 0.000000 7.371007 22.281050 -7.238851 -1.890328 -8.632946 24.654128 0.538560 -13.556923 -9.581497 -0.288708 3.454413 -9.546651 -3.327561 0.596522 2.918625 -2.606063 0.687133 1.338561 -0.828905 0.335179 -0.269621 -6.276312 -5.302208 1.530427 5.631756 -8.384683 24.961617 2.382480 -4.195401 7.944360 0.000000 0.000000 0.000000 14.242514 -17.142002 -11.739000 114.780167 -57.521071 81.278432 30.169270 -12.398122 -25.006401 0.000000 0.000000 0.000000 -7.125000 0.000000 0.000000 0.689868 58.327452 -0.228555 0.000000 0.000000 0.000000 -120.319684 -36.351548 -84.905874 -139.408254 -48.416173 -101.119209 -48.763865 1.914761 -3.155108 0.000000 0.000000 0.000000 7.125000 0.000000 0.000000 -16.491546 25.157625 -8.244163
2.602079 18.339722 5.458535 -4.137569 -9.606658 -3.593606 0.000000 0.000000 0.000000 -9.743827 -6.366009 4.046332 2.409407 9.671292 27.918724 1.525328 3.302174 -24.719368 0.948293 -6.201371 -17.370049 0.000000 0.000000 0.000000 7.115774 24.026499 -6.188237 -1.712356 -8.239302 23.443356 0.411595 -11.589377 -7.134496 -0.337763 3.728022 -10.313553 -3.377459 0.706980 3.143091 -2.583633 0.830251 1.539640 -0.784106 0.404699 -0.191170 -6.118985 -5.160052 1.381355 5.217024 -8.213151 27.453647 2.225967 -4.111145 8.802208 0.000000 0.000000 0.000000 13.333788 -17.528825 -11.095458 97.622831 -59.754603 66.595051 34.052786 -1.390607 -28.782629 0.000000 0.000000 0.000000 -7.125000 0.000000 0.000000 4.328461 63.477058 -1.946345 0.000000 0.000000 0.000000 -114.871833 -40.312443 -80.700011 -136.720441 -49.895951 -99.085316 -46.949927 3.298657 -2.827648 0.000000 0.000000 0.000000 7.125000 0.000000 0.000000 -15.264482 25.787165 -7.352199
2.328644 18.267086 5.479749 -3.356421 -7.059567 -3.551396 0.000000 0.000000 0.000000 -9.303360 -7.391840 3.112678 2.528565 9.889592 28.619914 1.534489 1.720428 -24.085001 0.966918 -6.259759 -17.540433 0.000000 0.000000 0.000000 6.982194 23.660470 -6.357099 -1.975698 -8.814449 25.217167 0.249650 -9.720806 -7.940313 -0.338235 3.735710 -10.334531 -3.700618 0.778663 3.540551 -2.651410 0.912404 1.961916 -0.678565 0.439120 0.016211 -6.456805 -4.912958 2.177286 5.706264 -8.040381 28.734995 2.495728 -4.020707 9.139649 0.000000 0.000000 0.000000 12.622759 -17.771009 -11.926282 81.930973 -59.745636 53.018355 34.144224 6.126933 -31.186045 0.000000 0.000000 0.000000 -7.125000 0.000000 0.000000 3.595556 66.126143 -1.832578 0.000000 0.000000 0.000000 -108.003336 -44.088997 -74.839539 -131.972232 -52.165367 -95.391500 -45.315272 3.946493 -2.915948 0.000000 0.000000 0.000000 7.125000 0.000000 0.000000 -14.056288 25.792718 -6.733383
2.009633 18.192628 5.466306 -2.888899 -4.751058 -3.247713 0.000000 0.000000 0.000000 -8.335374 -8.582220 1.653011 2.659565 10.122531 29.374322 1.485930 0.213174 -23.139622 0.910404 -6.079135 -17.014524 0.000000 0.000000 0.000000 7.189217 23.366252 -7.141352 -2.384145 -9.624051 27.767746 0.154794 -9.700382 -10.743802 -0.750742 5.534285 -15.438928 -3.846207 0.784022 4.260103 -2.625066 0.889260 2.325834 -0.576872 0.424390 -0.013185 -6.281382 -4.677243 2.166156 5.450043 -7.692334 30.181344 2.414193 -3.841997 9.628964 0.000000 0.000000 0.000000 12.306952 -17.105753 -14.063454 73.103842 -58.892688 45.421896 33.297521 10.111698 -32.817140 0.000000 0.000000 0.000000 -7.125000 0.000000 0.000000 1.633783 67.624751 -0.888812 0.000000 0.000000 0.000000 -99.055155 -48.966296 -67.798245 -125.682470 -54.592986 -90.340609 -44.305408 5.554580 -1.688737 0.000000 0.000000 0.000000 7.125000 0.000000 0.000000 -13.554367 27.533989 -5.907288
1.672442 18.151531 5.463079 -2.264138 -2.432920 -3.080014 0.000000 0.000000 0.000000 -7.645137 -9.453437 0.677090 2.701835 10.196025 29.613761 1.345146 -0.483169 -21.785379 1.026254 -6.443930 -18.078055 0.000000 0.000000 0.000000 7.161277 23.062112 -7.351520 -2.579075 -9.980261 28.912903 0.066572 -9.409291 -12.171056 -0.924795 6.126192 -17.151031 -4.037455 0.858102 4.980653 -2.563111 0.963480 2.888742 -0.416435 0.452857 0.159956 -5.905482 -4.529828 1.756922 5.117615 -7.414557 31.369702 2.254112 -3.669874 10.103124 0.000000 0.000000 0.000000 11.679810 -16.034032 -17.328076 68.025222 -58.093615 41.091134 26.859568 8.795354 -32.428671 0.000000 0.000000 0.000000 -7.125000 0.000000 0.000000 -6.790820 65.316449 3.339476 0.000000 0.000000 0.000000 -88.386381 -52.042356 -58.471111 -116.245314 -57.225405 -82.516756 -45.012952 6.577426 -0.301522 0.000000 0.000000 0.000000 7.125000 0.000000 0.000000 -14.361927 29.398889 -5.623352
